<svg xmlns="http://www.w3.org/2000/svg" viewBox="0 0 460.605 460.602" width="460.605" height="460.602"><title>Pepecoin (PEP)</title><path fill="#208241" d="M460.605 230.297C460.605 103.109 357.491 0 230.301 0 103.104 0 0 103.109 0 230.297s103.104 230.305 230.301 230.305c127.19 0 230.304-103.116 230.304-230.305"/><path fill="#269B4D" d="M442.142 230.301c0-116.994-94.848-211.837-211.841-211.837-117 0-211.838 94.844-211.838 211.837s94.838 211.841 211.838 211.841c116.993 0 211.841-94.848 211.841-211.841"/><path fill="#16532A" d="M14.386 230.297c0-119.25 96.665-215.919 215.915-215.919 119.248 0 215.912 96.669 215.912 215.919 0 119.247-96.664 215.906-215.912 215.913-119.25-.007-215.915-96.666-215.915-215.913M82.814 82.809c-37.751 37.75-61.084 89.876-61.09 147.488.005 57.605 23.339 109.715 61.09 147.495 37.756 37.739 89.876 61.08 147.487 61.08 57.609 0 109.725-23.341 147.489-61.08 37.75-37.78 61.083-89.89 61.083-147.495 0-57.611-23.333-109.738-61.083-147.488-37.765-37.753-89.88-61.093-147.489-61.093s-109.73 23.34-147.487 61.093"/><path fill="#212121" d="M414.643 262.958c.019-45.785-11.392-75.159-25.779-93.125l-.018-.021c-10.448-12.927-21.881-19.744-31.349-22.618A130 130 0 0 0 354 132.962c-5.748-18.734-17.944-41.745-43.74-52.145-13.116-5.228-25.527-7.647-36.965-7.678-.086 0-.186-.007-.283-.007-9.402 0-18.096 1.649-25.86 4.554a65.2 65.2 0 0 0-18.913-11.573c-13.078-5.214-25.473-7.62-36.899-7.665-.107 0-.227-.007-.364-.007-25.873-.042-46.098 12.461-57.013 29.207a70 70 0 0 0-3.112.302c-13.602 1.767-27.831 6.682-39.062 17.259a4.7 4.7 0 0 0-.614.586c-4.112.826-7.954 2.187-11.453 4.343-7.102 4.249-11.382 12.076-11.327 20.24 0 0-.007.122 0 .389.009 1.152.092 2.294.226 3.416-.313.378-.622.75-.929 1.135-4.944 6.401-7.961 13.434-8.883 20.407a46 46 0 0 0-.345 5.658c0 6.193 1.19 14.253 6.016 22.025a35 35 0 0 0 2.895 4.023 20 20 0 0 0-.505 4.242h-.003c-.01.09-.01.41.023.833.302 8.647 5.457 16.238 13.159 20.373a37 37 0 0 0 1.519 3.371c-10.653 11.483-13.942 25.583-13.928 36.218h.009c0 .069 0 .167.003.278.05 2.131.167 4.172.399 6.141a24.9 24.9 0 0 0-8.867 12.312 26.2 26.2 0 0 0-1.332 8.241c.019 5.192 1.526 10.303 4.417 14.642a26.5 26.5 0 0 0-.652 5.811c-.003 8.789 4.457 17.474 12.455 22.306a147 147 0 0 0 12.938 7.478c13.333 31.65 52.809 66.313 133.534 66.32.271 0 .533 0 .799-.007h.438c13.071 0 27.208-.86 42.556-2.707 22.842-2.819 59.128-10.657 90.975-29.991 31.563-18.946 59.124-51.222 59.334-99.298l.01-.041v-.924z"/><path fill="#FFF" d="M163.961 185.852c.62-4.523 2.083-13.906 8.542-22.67.597-.83 1.3-1.625 1.993-2.43.076-1.236-.183-2.319-1.118-3.256-25.276-17.374-62.829-22.972-79.805-21.327C82 137.321 74.841 149.953 73.9 157.6c-1.014 8.29.687 24.059 19.631 28.929 22.471 5.783 62.52 8.29 68.19 2.614.832-.83 1.535-1.6 2.178-2.35.032-.306.022-.639.062-.941"/><path fill="#212121" d="M148.518 166.007c0 9.726-8.125 17.595-18.156 17.595-10.023 0-18.149-7.869-18.149-17.595 0-9.712 8.126-17.599 18.149-17.599 10.031 0 18.156 7.887 18.156 17.599"/><path fill="#FFF" d="M141.613 161.928a5.614 5.614 0 0 1-5.613 5.606 5.611 5.611 0 1 1 5.613-5.606m169.19 36.958c0-7.033-11.455-7.428-18.835-11.115-12.255-6.116-33.173-29.505-78.512-32.671-35.854-2.513-40.634 23.226-41.757 31.769-1.583 12.017 5.677 32.671 52.648 35.393 35.852 2.093 56.959-14.979 68.528-17.238 11.578-2.274 17.928-1.368 17.928-6.138"/><path fill="#212121" d="M259.252 191.646c0 11.899-9.965 21.563-22.244 21.563-12.275 0-22.236-9.664-22.236-21.563 0-11.906 9.961-21.556 22.236-21.556 12.28-.001 22.244 9.649 22.244 21.556"/><path fill="#FFF" d="M249.957 186.807c0 3.534-2.862 6.401-6.386 6.401a6.401 6.401 0 1 1 0-12.802c3.523 0 6.386 2.867 6.386 6.401"/><path fill="#269B4D" d="M92.773 128.411c2.208-.233 4.578-.316 7.107-.316 19.769.107 51.348 5.963 75.725 21.639.495-1.006.995-2.006 1.578-2.93.444-.68.953-1.301 1.444-1.944-17.641-17.085-38.336-22.34-65.892-25.041-3.11-.319-5.951-.465-8.555-.465-15.676.34-20.511 4.509-20.574 11.285 0 .149.063.357.063.51 2.71-1.402 5.741-2.402 9.104-2.738m257.654 32.126c-.88 11.372-3.215 15.617-3.935 15.537-.734-.077-1.13-3.152-1.766-8.629-.664-5.464-1.543-13.361-3.729-22.757-2.222-9.324-5.826-20.328-12.847-30.255-3.567-4.867-7.963-9.411-13.366-12.913-1.389-.813-2.72-1.736-4.219-2.416l-2.201-1.097-2.311-.931c-1.485-.673-3.272-1.146-4.956-1.708-1.717-.503-3.394-1.194-5.158-1.58-6.377-1.739-12.886-2.763-19.371-3.162-6.479-.194-12.931.399-19.054 2.051-9.481 2.444-18.071 7.765-24.198 15.1 2.498-.42 5.008-.347 7.458-.524 1.261-.048 2.509-.167 3.758-.132q1.841.113 3.651.222c2.427.191 4.824.236 7.118.569l6.706 1.131c1.094.194 2.178.393 3.235.58 1.052.232 2.059.545 3.07.815 1.999.556 3.952 1.097 5.846 1.631 3.789.941 7.104 2.465 10.187 3.631 6.224 2.271 10.835 4.971 14.044 6.787 3.173 1.857 4.808 3.113 4.575 3.62-.237.51-2.3.205-5.81-.743-3.531-.906-8.395-2.77-14.625-4.276-12.21-3.395-29.647-7.449-48.405-5.308a58.9 58.9 0 0 0-24.01 8.067c-1.768 1.128-3.459 2.357-5.139 3.603l-2.263 2.038c8.112-2.33 16.57-2.93 24.784-2.496 11.379.798 21.858 3.454 30.94 6.766 9.107 3.263 16.907 7.105 23.228 10.653 12.645 7.113 19.583 12.798 19.092 13.6-.595.982-8.517-3.093-21.459-8.806-6.479-2.867-14.259-6.078-23.089-8.848-8.813-2.808-18.729-5.079-29.179-5.821-9.522-.514-19.199.444-27.749 4.082-4.237 1.805-8.241 4.214-11.499 7.283-1.673 1.5-3.072 3.225-4.247 5.002-.738 1.118-1.272 2.301-1.669 3.43 6.684-4.398 15.622-7.314 26.821-7.217 1.723 0 3.49.056 5.313.194 23.918 1.652 41.775 8.765 54.949 16.218 13.039 7.394 22.066 15.19 26.506 17.262 3.743 2.281 11.469 2.35 18.692 8.14 2.459 2.072 4.563 6.008 4.459 9.955.182 2.867-1.507 6.873-4.102 8.737-2.503 1.933-4.702 2.419-6.679 2.898-3.977.812-8.083 1.083-13.467 2.156-3.102.427-11.222 4.752-21.852 9.084-10.746 4.318-24.742 8.477-42.059 8.477h-.057c-2.109 0-4.271-.056-6.498-.188-22.621-1.333-37.474-6.609-47.087-14.301-4.485-3.547-7.602-7.65-9.693-11.823a20.8 20.8 0 0 0-.198 7.473c.665 4.634 2.576 9.175 5.422 13.111 2.847 3.923 6.588 7.255 10.827 9.865 1.003.736 2.187 1.226 3.269 1.847l1.659.893 1.791.791 3.581 1.569c1.213.507 2.461.912 3.659 1.371 2.65 1.048 5.37 1.718 8 2.558 2.702.58 5.313 1.337 7.96 1.674 5.248.972 10.406 1.246 15.319 1.263 9.852-.086 18.747-1.613 26.152-3.37 14.776-3.658 23.813-7.164 24.297-6.02.406.882-7.753 6.242-22.733 11.497-7.496 2.53-16.842 4.79-27.528 5.304-5.327.198-10.986.056-16.747-.874-2.91-.348-5.783-1.104-8.728-1.722-2.874-.868-5.854-1.598-8.711-2.739-1.331-.496-2.671-.954-3.968-1.489l-3.865-1.693-1.942-.848-1.923-1.034c-1.278-.722-2.616-1.291-3.82-2.155-4.986-3.079-9.527-7.099-13.052-11.966-3.547-4.859-6.003-10.594-6.889-16.71-.48-3.041-.449-6.2.073-9.345.231-1.631.707-3.263 1.352-4.86-1.416.382-2.855.656-4.412.965-3.994.611-8.61.847-13.725.854-15.756-.021-36.068-2.319-50.645-6.05a37.4 37.4 0 0 1-8.206-3.048c-1.975 2.829.458 7.959 4.598 10.011 1.413.705 3.02.982 4.42 1.711 1.182.618.96 1.097 1.663 3.485a31 31 0 0 0 2.029 4.995c.469.906.993 1.795 1.625 2.604 1.112 1.434 2.235 2.829 3.638 3.981 1.951 1.569 4.181 2.77 6.382 3.937a69 69 0 0 0 7.054 3.318 50 50 0 0 0 4.177 1.413 42.5 42.5 0 0 0 6.649 1.356c3.457.438 6.944.5 10.424.497 2.369-.003 4.78-.104 7.144.101.974.072 1.963.201 2.817.708.022.007.189.094.189.111 1.625.34-24.067 13.26-50.025-6.058-10.21 8.615-13.279 20.404-13.307 29.353-.033 1.51.073 2.94.241 4.249a22.23 22.23 0 0 1 11.786 3.742c21.02 14.301 57.941 23.427 95.353 23.337h.765c26.707.003 53.823-4.332 75.915-12.518 13.019-4.787 25.866-11.101 35.295-19.668 3.74-3.36 7.536-7.436 12.571-11.208 4.986-3.756 11.584-7.033 19.585-7.695a30 30 0 0 1 2.99-.137c7.682-.045 14.688 2.84 19.693 7.439 5.046 4.589 8.203 10.629 9.64 17.016v.011c.516 2.302.724 4.606.724 6.884 0 .402-.032.798-.046 1.19.034.601.046 1.211.046 1.802-.052 7.206-2.011 14.072-5.742 19.83-16.215 24.497-42.136 40.457-70.884 50.829-28.914 10.345-61.517 15.19-93.765 15.218-30.366-.104-60.42-4.373-86.956-13.565 16.335 21.418 49.708 41.821 112.17 41.919 12.411 0 25.977-.819 40.792-2.61 21.361-2.576 56.065-10.255 85.055-27.937 29.022-17.787 52.203-44.974 52.256-87.676-.049-80.794-36.826-100.074-49.914-102.475m-167.413-20.488a42 42 0 0 1 4.561-3.582c.155-.323.253-.694.429-.997.639-1.093 1.139-2.336 1.915-3.318l2.178-3.089c.779-.951 1.626-1.857 2.447-2.787l1.246-1.382 1.366-1.229 2.754-2.468c1.953-1.461 3.938-2.902 5.99-4.214 3.999-2.409 8.246-4.353 12.625-5.87.759-1.565 1.682-3.242 1.963-3.707a54 54 0 0 1 13.739-15.155 55 55 0 0 1 4.27-2.895c-4.313-3.86-9.313-7.154-15.251-9.532-11.679-4.648-22.299-6.62-31.735-6.62-20.992.017-36.255 9.712-44.583 22.219 25.805 4.27 31.647 10.757 31.248 11.677-.467 1.118-5.597-.156-13.732-1.645-8.123-1.41-19.425-2.805-31.621-1.347-8.803 1.111-17.443 4.013-24.564 8.831 1.646.083 3.345.198 5.124.371 27.817 2.691 50.557 8.3 69.631 26.739"/><path fill="#C07A4E" d="M357.583 259.153c-2.252-10.08-10.213-18.126-22.371-17.064-12.139 1.076-18.59 9.164-26.728 16.537-10.834 9.799-24.741 16.488-38.326 21.501-23.438 8.657-51.547 13.114-79.31 13.1-39.098.098-77.529-9.015-101.184-24.937-5.998-4.013-14.119-2.378-18.121 3.624-2.843 4.27-2.798 9.584-.399 13.753 24.125 15.772 70.816 30.241 121.126 30.199 48.306 0 99.834-13.143 139.07-50.1a3.74 3.74 0 0 1 5.28.148 3.75 3.75 0 0 1-.17 5.29c-41.035 38.628-94.575 52.124-144.16 52.124h-.021c-47.55-.042-91.44-12.288-118.401-27.339-1.97 5.54-.037 11.899 5.092 15.266 30.715 20.092 74.025 29.193 118.087 29.305 31.286-.021 62.923-4.763 90.594-14.663 27.589-9.948 51.625-25.034 66.233-47.188 3.391-5.129 5.15-13.061 3.709-19.556"/></svg>